<svg width="36" height="36" viewBox="0 0 31 31" fill="none" xmlns="http://www.w3.org/2000/svg">
<path d="M16.8709 30.0834H14.1146C13.4648 30.0834 12.8417 29.8253 12.3822 29.3658C11.9227 28.9064 11.6646 28.2832 11.6646 27.6334V26.0438C11.6567 25.9502 11.6224 25.8607 11.5655 25.7858C11.5087 25.7109 11.4318 25.6538 11.3438 25.6209C11.2545 25.5637 11.1508 25.5334 11.0448 25.5334C10.9388 25.5334 10.8351 25.5637 10.7459 25.6209L9.66669 26.7876C9.44032 27.0155 9.17109 27.1965 8.8745 27.3199C8.57791 27.4434 8.25982 27.5069 7.93856 27.5069C7.6173 27.5069 7.29922 27.4434 7.00263 27.3199C6.70604 27.1965 6.4368 27.0155 6.21044 26.7876L4.21252 24.8334C3.98126 24.6075 3.79759 24.3375 3.67235 24.0395C3.54712 23.7414 3.48285 23.4213 3.48335 23.098C3.48429 22.4367 3.74635 21.8025 4.21252 21.3334L5.29169 20.2542C5.34379 20.1739 5.37151 20.0802 5.37151 19.9845C5.37151 19.8887 5.34379 19.795 5.29169 19.7147C5.20419 19.4959 5.05835 19.3355 4.85419 19.3355H3.36669C2.71557 19.3316 2.09243 19.0703 1.63338 18.6085C1.17433 18.1467 0.916676 17.522 0.916687 16.8709V14.1147C0.916687 13.4649 1.17481 12.8417 1.63428 12.3823C2.09374 11.9228 2.71691 11.6647 3.36669 11.6647H4.95627C5.04992 11.6568 5.1394 11.6224 5.21428 11.5656C5.28916 11.5088 5.34635 11.4319 5.37919 11.3438C5.43636 11.2546 5.46674 11.1508 5.46674 11.0449C5.46674 10.9389 5.43636 10.8351 5.37919 10.7459L4.21252 9.66675C3.98456 9.44038 3.80364 9.17115 3.68018 8.87456C3.55672 8.57797 3.49316 8.25988 3.49316 7.93862C3.49316 7.61736 3.55672 7.29928 3.68018 7.00269C3.80364 6.7061 3.98456 6.43687 4.21252 6.2105L6.16669 4.21258C6.39039 3.98241 6.65789 3.79933 6.95342 3.6741C7.24895 3.54888 7.56655 3.48404 7.88752 3.48341C8.21746 3.48197 8.54445 3.54563 8.84975 3.67075C9.15505 3.79587 9.43266 3.98 9.66669 4.21258L10.7459 5.29175C10.8262 5.34385 10.9199 5.37157 11.0156 5.37157C11.1114 5.37157 11.2051 5.34385 11.2854 5.29175C11.5042 5.20425 11.6646 5.05841 11.6646 4.85425V3.36675C11.6685 2.71563 11.9298 2.09249 12.3916 1.63344C12.8534 1.17439 13.4781 0.916737 14.1292 0.916748H16.9584C17.6081 0.916748 18.2313 1.17487 18.6908 1.63434C19.1502 2.0938 19.4084 2.71697 19.4084 3.36675V4.95633C19.4163 5.04998 19.4506 5.13946 19.5074 5.21434C19.5642 5.28922 19.6411 5.34641 19.7292 5.37925C19.8184 5.43642 19.9222 5.4668 20.0281 5.4668C20.1341 5.4668 20.2379 5.43642 20.3271 5.37925L21.3334 4.21258C21.5597 3.98462 21.829 3.8037 22.1255 3.68024C22.4221 3.55678 22.7402 3.49322 23.0615 3.49322C23.3827 3.49322 23.7008 3.55678 23.9974 3.68024C24.294 3.8037 24.5632 3.98462 24.7896 4.21258L26.7875 6.16675C27.0181 6.39316 27.2014 6.66322 27.3265 6.96116C27.4517 7.25911 27.5164 7.57899 27.5167 7.90216C27.5237 8.23072 27.4626 8.55716 27.3371 8.86088C27.2116 9.1646 27.0244 9.439 26.7875 9.66675L25.7084 10.7459C25.6563 10.8263 25.6285 10.92 25.6285 11.0157C25.6285 11.1115 25.6563 11.2052 25.7084 11.2855C25.7959 11.5042 25.9417 11.6647 26.1459 11.6647H27.7354C28.3687 11.6947 28.966 11.9675 29.4032 12.4265C29.8405 12.8855 30.0841 13.4953 30.0834 14.1292V16.9584C30.0834 17.6082 29.8252 18.2314 29.3658 18.6908C28.9063 19.1503 28.2831 19.4084 27.6334 19.4084H26.0438C25.9501 19.4163 25.8606 19.4507 25.7858 19.5075C25.7109 19.5643 25.6537 19.6412 25.6209 19.7292C25.5688 19.8096 25.541 19.9033 25.541 19.999C25.541 20.0948 25.5688 20.1885 25.6209 20.2688L26.7438 21.3917C26.9717 21.6181 27.1527 21.8873 27.2761 22.1839C27.3996 22.4805 27.4631 22.7986 27.4631 23.1199C27.4631 23.4411 27.3996 23.7592 27.2761 24.0558C27.1527 24.3524 26.9717 24.6216 26.7438 24.848L24.8334 26.7876C24.6096 27.0177 24.3422 27.2008 24.0466 27.3261C23.7511 27.4513 23.4335 27.5161 23.1125 27.5167C22.4613 27.5082 21.839 27.2467 21.3771 26.7876L20.2542 25.7084C20.1738 25.6563 20.0801 25.6286 19.9844 25.6286C19.8886 25.6286 19.7949 25.6563 19.7146 25.7084C19.4959 25.7959 19.3354 25.9417 19.3354 26.1459V27.7355C19.3054 28.3687 19.0326 28.966 18.5736 29.4033C18.1146 29.8405 17.5048 30.0841 16.8709 30.0834ZM14.5813 27.1667H16.4188V26.0438C16.425 25.3713 16.6306 24.7158 17.0096 24.1602C17.3887 23.6047 17.924 23.1741 18.5479 22.923C19.1744 22.6492 19.8682 22.5681 20.5409 22.6902C21.2136 22.8123 21.8347 23.1319 22.325 23.6084L23.1125 24.3959L24.3959 23.1126L23.6084 22.3105C23.1349 21.8276 22.8155 21.2149 22.6909 20.5502C22.5663 19.8855 22.642 19.1988 22.9084 18.5772C23.1617 17.956 23.5933 17.4237 24.1486 17.0474C24.704 16.6711 25.3583 16.4676 26.0292 16.4626H27.1667V14.5813H26.0438C25.3713 14.5751 24.7157 14.3695 24.1602 13.9905C23.6046 13.6114 23.174 13.0761 22.9229 12.4522C22.6491 11.8257 22.5681 11.1319 22.6901 10.4592C22.8122 9.78648 23.1319 9.16538 23.6084 8.67508L24.3959 7.88758L23.1125 6.60425L22.3104 7.39175C21.82 7.83969 21.2119 8.13819 20.5575 8.2521C19.9031 8.366 19.2299 8.29056 18.617 8.03467C18.004 7.77877 17.477 7.35308 17.0979 6.80771C16.7188 6.26234 16.5034 5.62 16.4771 4.95633V3.83341H14.5813V4.95633C14.5751 5.62884 14.3694 6.28438 13.9904 6.83993C13.6114 7.39549 13.076 7.82607 12.4521 8.07716C11.8256 8.351 11.1318 8.43204 10.4591 8.30997C9.78642 8.1879 9.16532 7.86824 8.67502 7.39175L7.88752 6.60425L6.60419 7.88758L7.39169 8.68966C7.83963 9.18007 8.13813 9.78825 8.25203 10.4426C8.36594 11.097 8.2905 11.7702 8.03461 12.3831C7.77871 12.9961 7.35302 13.5231 6.80765 13.9022C6.26228 14.2813 5.61994 14.4967 4.95627 14.523H3.83335V16.3605H4.95627C5.62878 16.3667 6.28431 16.5723 6.83987 16.9514C7.39543 17.3304 7.82601 17.8658 8.0771 18.4897C8.35094 19.1161 8.43198 19.8099 8.30991 20.4826C8.18784 21.1553 7.86817 21.7764 7.39169 22.2667L6.60419 23.0542L7.88752 24.3376L8.6896 23.5501C9.18 23.1021 9.78819 22.8036 10.4425 22.6897C11.0969 22.5758 11.7702 22.6513 12.3831 22.9072C12.996 23.1631 13.523 23.5887 13.9021 24.1341C14.2813 24.6795 14.4966 25.3218 14.5229 25.9855L14.5813 27.1667Z" fill="#FAFAFA" fill-opacity="0.7"/>
<path d="M15.5 20.6041C14.4905 20.6041 13.5036 20.3047 12.6643 19.7439C11.8249 19.183 11.1707 18.3859 10.7843 17.4532C10.398 16.5205 10.2969 15.4943 10.4939 14.5041C10.6908 13.514 11.177 12.6046 11.8908 11.8907C12.6046 11.1769 13.5141 10.6908 14.5042 10.4938C15.4943 10.2969 16.5206 10.398 17.4533 10.7843C18.3859 11.1706 19.1831 11.8248 19.7439 12.6642C20.3048 13.5036 20.6042 14.4904 20.6042 15.4999C20.6042 16.8536 20.0664 18.1519 19.1092 19.1091C18.152 20.0663 16.8537 20.6041 15.5 20.6041ZM15.5 13.3124C15.0673 13.3124 14.6444 13.4407 14.2847 13.6811C13.9249 13.9214 13.6446 14.2631 13.479 14.6628C13.3134 15.0625 13.2701 15.5023 13.3545 15.9267C13.4389 16.351 13.6473 16.7408 13.9532 17.0467C14.2591 17.3526 14.6489 17.561 15.0732 17.6454C15.4976 17.7298 15.9374 17.6865 16.3371 17.5209C16.7368 17.3553 17.0785 17.075 17.3188 16.7152C17.5592 16.3555 17.6875 15.9326 17.6875 15.4999C17.6875 14.9198 17.457 14.3634 17.0468 13.9531C16.6365 13.5429 16.0801 13.3124 15.5 13.3124Z" fill="#FAFAFA" fill-opacity="0.7"/>
</svg>
